name C:\Users\u0101727\Documents\MyRepositories\predictivesimulations\OpenSimModel\subject1\EMG\EMG_gait_60.mot
datacolumns 25
datarows 20
range 1.15300000 1.17200000
endheader
time	HamL_r	TA_r	PerL_r	GL_r	HamM_r	Sol_r	VL_r	VM_r	PerB_l	TA_l	PerL_l	GL_l	GM_l	Sol_l	VL_l	VM_l	AddL_l	RF_l	TFL_l	GluMed_l	HamL_l	HamM_l	GluMed_r	RF_r	
          1.15300000	          0.00373364	          0.00411911	          0.00365132	          0.00354688	          0.00288471	          0.07786228	          0.00614319	          0.00371220	          0.00856328	          0.05041436	          0.01587241	          0.00704691	          0.01495660	          0.00868103	          0.01883357	          0.01510295	          0.01412215	          0.01069982	          0.00706659	          0.00766312	          0.03061296	          0.07744476	          0.01078142	          0.00865696	
          1.15400000	          0.00373679	          0.00410200	          0.00365037	          0.00353129	          0.00285265	          0.07706260	          0.00616553	          0.00366928	          0.00861497	          0.05154427	          0.01599794	          0.00709604	          0.01480640	          0.00871644	          0.01915653	          0.01524398	          0.01441756	          0.01075128	          0.00704744	          0.00754369	          0.03070529	          0.07671647	          0.01066294	          0.00864977	
          1.15500000	          0.00374096	          0.00408391	          0.00364989	          0.00351838	          0.00282264	          0.07624588	          0.00618624	          0.00362640	          0.00866811	          0.05269208	          0.01612426	          0.00714606	          0.01465080	          0.00875431	          0.01947914	          0.01540153	          0.01470948	          0.01079499	          0.00702383	          0.00742250	          0.03075249	          0.07590780	          0.01054585	          0.00864030	
          1.15600000	          0.00374617	          0.00406474	          0.00364988	          0.00350818	          0.00279482	          0.07541606	          0.00620521	          0.00358370	          0.00872252	          0.05385298	          0.01625052	          0.00719707	          0.01449071	          0.00879455	          0.01979981	          0.01557646	          0.01499716	          0.01083102	          0.00699561	          0.00730023	          0.03075654	          0.07502232	          0.01042944	          0.00862828	
          1.15700000	          0.00375240	          0.00404434	          0.00365033	          0.00350073	          0.00276933	          0.07457654	          0.00622229	          0.00354130	          0.00877802	          0.05502171	          0.01637570	          0.00724910	          0.01432704	          0.00883703	          0.02011696	          0.01576990	          0.01527983	          0.01085947	          0.00696264	          0.00717750	          0.03072030	          0.07406469	          0.01031319	          0.00861347	
          1.15800000	          0.00375963	          0.00402258	          0.00365119	          0.00349601	          0.00274629	          0.07373052	          0.00623725	          0.00349930	          0.00883439	          0.05619257	          0.01649863	          0.00730211	          0.01416073	          0.00888152	          0.02042916	          0.01598331	          0.01555666	          0.01088043	          0.00692484	          0.00705488	          0.03064700	          0.07304031	          0.01019664	          0.00859564	
          1.15900000	          0.00376787	          0.00399935	          0.00365241	          0.00349399	          0.00272579	          0.07288119	          0.00624988	          0.00345778	          0.00889136	          0.05735939	          0.01661824	          0.00735599	          0.01399267	          0.00892774	          0.02073517	          0.01621829	          0.01582674	          0.01089407	          0.00688215	          0.00693283	          0.03053988	          0.07195484	          0.01007938	          0.00857445	
          1.16000000	          0.00377710	          0.00397462	          0.00365389	          0.00349463	          0.00270791	          0.07203181	          0.00625992	          0.00341678	          0.00894860	          0.05851533	          0.01673376	          0.00741053	          0.01382361	          0.00897537	          0.02103396	          0.01647645	          0.01608920	          0.01090052	          0.00683455	          0.00681175	          0.03040188	          0.07081369	          0.00996105	          0.00854954	
          1.16100000	          0.00378731	          0.00394843	          0.00365555	          0.00349789	          0.00269272	          0.07118559	          0.00626710	          0.00337637	          0.00900570	          0.05965296	          0.01684486	          0.00746552	          0.01365424	          0.00902408	          0.02132457	          0.01675926	          0.01634323	          0.01089990	          0.00678212	          0.00669199	          0.03023566	          0.06962183	          0.00984129	          0.00852050	
          1.16200000	          0.00379844	          0.00392091	          0.00365726	          0.00350370	          0.00268025	          0.07034553	          0.00627118	          0.00333658	          0.00906221	          0.06076436	          0.01695149	          0.00752074	          0.01348516	          0.00907349	          0.02160605	          0.01706806	          0.01658798	          0.01089233	          0.00672504	          0.00657384	          0.03004367	          0.06838394	          0.00971971	          0.00848701	
          1.16300000	          0.00381040	          0.00389220	          0.00365892	          0.00351195	          0.00267049	          0.06951407	          0.00627202	          0.00329750	          0.00911768	          0.06184122	          0.01705366	          0.00757603	          0.01331693	          0.00912326	          0.02187731	          0.01740398	          0.01682257	          0.01087799	          0.00666368	          0.00645754	          0.02982830	          0.06710476	          0.00959591	          0.00844885	
          1.16400000	          0.00382309	          0.00386248	          0.00366045	          0.00352247	          0.00266343	          0.06869324	          0.00626955	          0.00325921	          0.00917166	          0.06287510	          0.01715139	          0.00763129	          0.01315004	          0.00917310	          0.02213711	          0.01776797	          0.01704598	          0.01085722	          0.00659848	          0.00634336	          0.02959189	          0.06578918	          0.00946945	          0.00840588	
          1.16500000	          0.00383637	          0.00383194	          0.00366189	          0.00353509	          0.00265900	          0.06788493	          0.00626375	          0.00322180	          0.00922373	          0.06385761	          0.01724464	          0.00768653	          0.01298488	          0.00922282	          0.02238408	          0.01816078	          0.01725712	          0.01083045	          0.00652992	          0.00623150	          0.02933658	          0.06444219	          0.00933996	          0.00835807	
          1.16600000	          0.00385010	          0.00380079	          0.00366335	          0.00354963	          0.00265713	          0.06709127	          0.00625464	          0.00318533	          0.00927345	          0.06478049	          0.01733338	          0.00774184	          0.01282180	          0.00927227	          0.02261702	          0.01858296	          0.01745472	          0.01079821	          0.00645844	          0.00612214	          0.02906423	          0.06306900	          0.00920717	          0.00830544	
          1.16700000	          0.00386417	          0.00376923	          0.00366495	          0.00356592	          0.00265773	          0.06631502	          0.00624225	          0.00314989	          0.00932036	          0.06563555	          0.01741752	          0.00779734	          0.01266108	          0.00932130	          0.02283512	          0.01903484	          0.01763743	          0.01076094	          0.00638446	          0.00601543	          0.02877643	          0.06167504	          0.00907104	          0.00824807	
          1.16800000	          0.00387846	          0.00373749	          0.00366682	          0.00358383	          0.00266074	          0.06555964	          0.00622664	          0.00311556	          0.00936404	          0.06641491	          0.01749694	          0.00785307	          0.01250299	          0.00936981	          0.02303818	          0.01951649	          0.01780383	          0.01071904	          0.00630840	          0.00591154	          0.02847453	          0.06026557	          0.00893178	          0.00818605	
          1.16900000	          0.00389284	          0.00370575	          0.00366905	          0.00360322	          0.00266610	          0.06482877	          0.00620788	          0.00308242	          0.00940414	          0.06711179	          0.01757159	          0.00790906	          0.01234779	          0.00941774	          0.02322643	          0.02002771	          0.01795250	          0.01067287	          0.00623066	          0.00581062	          0.02815970	          0.05884530	          0.00878973	          0.00811945	
          1.17000000	          0.00390719	          0.00367421	          0.00367171	          0.00362394	          0.00267377	          0.06412572	          0.00618599	          0.00305054	          0.00944033	          0.06772141	          0.01764154	          0.00796541	          0.01219572	          0.00946503	          0.02340027	          0.02056807	          0.01808213	          0.01062278	          0.00615161	          0.00571279	          0.02783307	          0.05741820	          0.00864533	          0.00804836	
          1.17100000	          0.00392139	          0.00364304	          0.00367481	          0.00364579	          0.00268369	          0.06345320	          0.00616094	          0.00301996	          0.00947223	          0.06824133	          0.01770708	          0.00802223	          0.01204699	          0.00951162	          0.02356000	          0.02113690	          0.01819168	          0.01056914	          0.00607157	          0.00561818	          0.02749565	          0.05598751	          0.00849913	          0.00797289	
          1.17200000	          0.00393533	          0.00361238	          0.00367833	          0.00366855	          0.00269576	          0.06281343	          0.00613273	          0.00299072	          0.00949956	          0.06867113	          0.01776869	          0.00807966	          0.01190180	          0.00955737	          0.02370589	          0.02173336	          0.01828048	          0.01051236	          0.00599079	          0.00552687	          0.02714842	          0.05455581	          0.00835176	          0.00789326	
